# xmcd
#
# Track frame offsets: 
#        150
#        12929
#        33600
#        51005
#        63703
#        80198
#        96556
#        116294
#        131419
#        170051
#
# Disc length: 2280 seconds
#
# Revision: 0
# Processed by: cddbd v1.5.2PL0 Copyright (c) Steve Scherf et al.
# Submitted via: ExactAudioCopy v0.95b4
#
DISCID=8c08e60a
DTITLE=Phillip Walker - Tough As I Want To Be
DYEAR=1984
DGENRE=Blues
TTITLE0=What Can I Do
TTITLE1=Port Arthur Blues
TTITLE2=I'm Tough (Tough As I Want To Be)
TTITLE3=Not Trustworthy (A Lyin' Woman)
TTITLE4=Wondering
TTITLE5=Think
TTITLE6=Go Ahead And Take Her
TTITLE7=Not The Same Man
TTITLE8=the Blues And My Guitar
TTITLE9=Phillip Walker Notes PDF Data
EXTD=
EXTT0=
EXTT1=
EXTT2=
EXTT3=
EXTT4=
EXTT5=
EXTT6=
EXTT7=
EXTT8=
EXTT9=
PLAYORDER=
